HIERARCHY
ROOT Hips
{
	OFFSET 0.000000 0.000000 0.000000 
	CHANNELS 6 Xposition Yposition Zposition Yrotation Zrotation Xrotation 
	JOINT Lumbar
	{
		OFFSET 0.000000 0.000000 0.000000 
		CHANNELS 3 Zrotation Xrotation Yrotation
		JOINT Neck
		{
			OFFSET 0.000000 0.445665 0.000000 
			CHANNELS 3 Zrotation Xrotation Yrotation
			End Site
			{
				OFFSET 0.000000 0.227535 0.000000 
			}
		}
		JOINT RightShoulder
		{
			OFFSET 0.019635 0.377685 0.194865 
			CHANNELS 3 Zrotation Xrotation Yrotation
			JOINT RightElbow
			{
				OFFSET 0.000000 -0.243375 0.000000 
				CHANNELS 2 Zrotation Yrotation
				JOINT RightWrist
				{
					OFFSET 0.000000 -0.264825 0.000000 
					CHANNELS 2 Zrotation Xrotation
					End Site
					{
						OFFSET 0.006600 -0.176220 0.000990 
					}
				}
			}
		}
		JOINT LeftShoulder
		{
			OFFSET 0.019635 0.377685 -0.194865 
			CHANNELS 3 Zrotation Xrotation Yrotation
			JOINT LeftElbow
			{
				OFFSET 0.000000 -0.243375 0.000000 
				CHANNELS 2 Zrotation Yrotation
				JOINT LeftWrist
				{
					OFFSET 0.000000 -0.264825 0.000000 
					CHANNELS 2 Zrotation Xrotation
					End Site
					{
						OFFSET 0.006600 -0.176220 -0.000990 
					}
				}
			}
		}
	}
	JOINT RightHip
	{
		OFFSET 0.052140 -0.069960 0.075570 
		CHANNELS 3 Zrotation Xrotation Yrotation
		JOINT RightKnee
		{
			OFFSET 0.000000 -0.402270 0.000000 
			CHANNELS 1 Zrotation
			JOINT RightAnkle
			{
				OFFSET 0.000000 -0.404085 0.000000 
				CHANNELS 3 Zrotation Xrotation Yrotation
				End Site
				{
					OFFSET 0.204105 -0.089430 0.008415 
				}
			}
		}
	}
	JOINT LeftHip
	{
		OFFSET 0.052140 -0.069960 -0.075570 
		CHANNELS 3 Zrotation Xrotation Yrotation
		JOINT LeftKnee
		{
			OFFSET 0.000000 -0.402270 0.000000 
			CHANNELS 1 Zrotation
			JOINT LeftAnkle
			{
				OFFSET 0.000000 -0.404085 0.000000 
				CHANNELS 3 Zrotation Xrotation Yrotation
				End Site
				{
					OFFSET 0.204105 -0.089430 -0.008415 
				}
			}
		}
	}
}
MOTION
Frames: 23
Frame Time: 0.02
0 0.95578 -0 182.65778 0 -4.30299 5.26686 4.94125 -2.86713 -9.15132 1.06987 -1.01757 9.03004 -12.21723 -9.78382 8.00887 80.86504 -1.90131 -1.48566 9.99366 9.75806 33.33487 5.91948 -77.62736 -5.22068 2.00971 -5.28196 5.9977 1.2493 -4.14074 2.31339 -4.31945 -6.61063 -4.62455 3.02703 -7.91508 -4.43563 6.534 5.42379 7.22283
-0.00018 0.95578 -1e-05 182.6559 0 -4.301 5.36691 4.91828 -2.7869 -9.40923 1.04207 -1.03019 9.36734 -12.22398 -9.35852 8.05335 80.78343 -1.88976 -1.49737 10.37748 9.80996 32.45183 6.08731 -77.58883 -5.27442 2.08837 -5.28764 5.99636 1.28408 -4.15005 2.31668 -4.34822 -6.6379 -4.61357 3.02223 -7.90634 -4.47993 6.55736 5.46486 7.21701
-0.00037 0.95578 -1e-05 182.65457 0 -4.29901 5.46655 4.8953 -2.70714 -9.66573 1.01461 -1.04265 9.70025 -12.23033 -8.93944 8.09665 80.70235 -1.8782 -1.50825 10.75667 9.86069 31.574 6.25364 -77.55057 -5.32732 2.16577 -5.29348 5.99505 1.31813 -4.15927 2.32012 -4.37684 -6.66502 -4.60276 3.01723 -7.90417 -4.52398 6.57995 5.50668 7.21727
-0.00056 0.95577 -2e-05 182.65546 0 -4.29696 5.56562 4.87218 -2.62898 -9.91916 0.98773 -1.05484 10.02094 -12.23512 -8.53737 8.13659 80.62373 -1.86659 -1.51653 11.12324 9.90854 30.70302 6.41652 -77.51437 -5.37749 2.23937 -5.30001 5.99387 1.34956 -4.16821 2.32429 -4.40517 -6.69177 -4.59267 3.01078 -7.94378 -4.56729 6.59793 5.55258 7.2574
-0.00073 0.95578 -3e-05 182.64463 0 -4.29516 5.66781 4.84992 -2.54295 -10.18891 0.95714 -1.06876 10.4088 -12.24818 -8.04071 8.19545 80.53341 -1.85537 -1.53934 11.55925 9.97318 29.78928 6.59877 -77.46892 -5.44228 2.33368 -5.30288 5.99202 1.39479 -4.17864 2.32469 -4.43503 -6.72046 -4.57895 3.01131 -7.78071 -4.61431 6.63821 5.57771 7.10496
-0.00094 0.95576 -3e-05 182.65857 0 -4.29286 5.76325 4.8258 -2.47325 -10.42384 0.93489 -1.07882 10.65254 -12.24373 -7.74767 8.21345 80.46704 -1.84327 -1.53091 11.84619 10.00121 28.9713 6.73911 -77.44196 -5.47598 2.3837 -5.31352 5.99158 1.41087 -4.18589 2.33301 -4.46165 -6.74505 -4.57277 2.99757 -8.03386 -4.65357 6.63271 5.64615 7.34735
-0.00131 0.95568 -0 182.7442 0 -4.28896 5.84246 4.79619 -2.45191 -10.56582 0.93193 -1.07951 10.50449 -12.18916 -8.00409 8.1216 80.47492 -1.82887 -1.43661 11.7288 9.93396 28.36829 6.77001 -77.47686 -5.4225 2.3114 -5.34634 5.99507 1.3431 -4.18464 2.36466 -4.47969 -6.75821 -4.5893 2.93823 -9.59586 -4.67063 6.48359 5.84531 8.83694
-0.00172 0.95558 3e-05 182.85434 0 -4.2846 5.91445 4.76472 -2.44651 -10.67215 0.93805 -1.07603 10.20966 -12.11718 -8.46881 7.98785 80.50552 -1.81358 -1.31055 11.45933 9.82864 27.87094 6.75754 -77.52861 -5.33786 2.19431 -5.38688 5.99998 1.24638 -4.18015 2.40409 -4.49441 -6.76724 -4.61313 2.86548 -11.55267 -4.68001 6.29101 6.08628 10.7001
-0.00211 0.9555 6e-05 182.95122 0 -4.2806 5.98833 4.73427 -2.4316 -10.793 0.94249 -1.07361 9.97774 -12.05428 -8.84684 7.87121 80.5204 -1.79857 -1.19865 11.25459 9.73683 27.356 6.76078 -77.56549 -5.26819 2.09759 -5.42349 6.00421 1.16506 -4.17695 2.43904 -4.51045 -6.77828 -4.6324 2.80295 -13.22435 -4.69343 6.12958 6.30124 12.28947
-0.00252 0.9554 9e-05 183.05698 0 -4.27598 6.06828 4.7031 -2.426 -10.92122 0.93671 -1.07477 9.7618 -11.98653 -9.19087 7.76272 80.55793 -1.78399 -1.08802 11.06869 9.66089 26.71045 6.78067 -77.63228 -5.19492 2.00074 -5.462 6.00857 1.07449 -4.17447 2.47792 -4.52733 -6.78885 -4.65687 2.72339 -15.33303 -4.70458 5.92096 6.54611 14.30888
-0.0029 0.95532 0.00012 183.15018 0 -4.27253 6.13361 4.673 -2.40511 -11.02522 0.95423 -1.06745 9.47776 -11.92467 -9.6556 7.6273 80.55386 -1.76843 -0.96707 10.80703 9.54301 26.36489 6.75589 -77.64147 -5.12198 1.8936 -5.49826 6.01298 0.99603 -4.16981 2.51052 -4.54165 -6.79926 -4.67229 2.67567 -16.63656 -4.71855 5.79915 6.73815 15.53241
-0.00319 0.95528 0.00015 183.20174 0 -4.27259 6.16267 4.64623 -2.33551 -11.07478 1.03502 -1.03813 9.04145 -11.88404 -10.39875 7.42799 80.42763 -1.74937 -0.82655 10.37709 9.31742 26.7968 6.61592 -77.48081 -5.05556 1.76857 -5.52736 6.0173 0.96059 -4.15917 2.52349 -4.54994 -6.81163 -4.66058 2.72293 -15.52347 -4.74282 5.93777 6.77831 14.37151
-0.00345 0.95526 0.00018 183.23995 0 -4.27382 6.17685 4.62064 -2.25045 -11.10059 1.13868 -1.00038 8.54191 -11.84982 -11.25643 7.20317 80.259 -1.72959 -0.67658 9.87565 9.05125 27.53141 6.43306 -77.26245 -4.99096 1.63485 -5.55375 6.0216 0.93794 -4.14658 2.52992 -4.55573 -6.82375 -4.63962 2.802 -13.6041 -4.77003 6.16338 6.7632 12.41418
-0.00372 0.95523 0.00021 183.28499 0 -4.27442 6.19632 4.59455 -2.17422 -11.13472 1.23114 -0.96616 8.07116 -11.81219 -12.06487 6.98963 80.111 -1.7108 -0.5301 9.40424 8.80432 28.14408 6.27135 -77.07538 -4.9268 1.50536 -5.58073 6.02585 0.90771 -4.1354 2.53965 -4.56254 -6.83504 -4.6231 2.86403 -12.11797 -4.79551 6.34251 6.77051 10.88456
-0.00402 0.9552 0.00024 183.32787 0 -4.27542 6.2217 4.56814 -2.09103 -11.1777 1.32749 -0.93292 7.59424 -11.776 -12.87073 6.77515 79.95835 -1.68907 -0.38564 8.9371 8.5523 28.69527 6.10074 -76.86914 -4.85606 1.37298 -5.61068 6.03043 0.88363 -4.12195 2.54839 -4.56973 -6.85007 -4.60573 2.93646 -10.3655 -4.82251 6.5494 6.79019 9.092
-0.00425 0.95518 0.00027 183.37151 0 -4.27588 6.23139 4.54282 -2.01834 -11.19751 1.42087 -0.89586 7.11808 -11.73865 -13.70395 6.5581 79.80465 -1.67343 -0.23545 8.44713 8.30223 29.444 5.93952 -76.68685 -4.80005 1.24531 -5.63373 6.03427 0.85054 -4.11271 2.55739 -4.57555 -6.85745 -4.58795 2.99502 -8.96866 -4.84696 6.71975 6.77102 7.65099
-0.00425 0.95516 0.00028 183.4225 0 -4.27454 6.20096 4.51941 -1.97919 -11.15544 1.50197 -0.84897 6.65186 -11.69596 -14.60419 6.3321 79.66169 -1.67373 -0.06969 7.90366 8.06377 30.67162 5.81078 -76.60275 -4.78274 1.13183 -5.63803 6.03619 0.78627 -4.11654 2.56983 -4.57861 -6.84258 -4.57018 3.00701 -8.77063 -4.86531 6.76767 6.65291 7.39214
-0.00416 0.95514 0.00029 183.47416 0 -4.27263 6.15536 4.49723 -1.9509 -11.09175 1.57898 -0.79879 6.19101 -11.65214 -15.52275 6.10612 79.51863 -1.68037 0.10083 7.34218 7.82969 32.0848 5.6939 -76.54158 -4.78061 1.0239 -5.63548 6.03732 0.71329 -4.12453 2.58251 -4.58035 -6.82028 -4.55246 3.0041 -8.95264 -4.88071 6.77608 6.49833 7.50958
-0.00412 0.95513 0.00029 183.52414 0 -4.271 6.11708 4.47505 -1.91704 -11.04058 1.65686 -0.75102 5.73314 -11.60917 -16.41979 5.88569 79.37309 -1.68483 0.26785 6.79458 7.59609 33.40865 5.57439 -76.45767 -4.77273 0.91417 -5.63633 6.03871 0.64645 -4.12996 2.59429 -4.58244 -6.80218 -4.53541 3.0084 -8.94593 -4.8964 6.80296 6.36369 7.44201
-0.00407 0.95511 0.0003 183.57967 0 -4.26931 6.07655 4.45055 -1.88536 -10.9772 1.73975 -0.6991 5.24906 -11.56465 -17.37899 5.64092 79.23587 -1.68642 0.44144 6.21928 7.35014 34.76773 5.44175 -76.42259 -4.76017 0.80068 -5.63603 6.04054 0.57061 -4.13802 2.60918 -4.58541 -6.78056 -4.51518 3.01194 -8.97913 -4.91662 6.8307 6.21312 7.40609
-0.00402 0.9551 0.00031 183.62374 0 -4.26759 6.0372 4.43117 -1.85191 -10.93441 1.81091 -0.65512 4.82297 -11.52343 -18.20865 5.44715 79.08292 -1.69535 0.60161 5.6997 7.13209 36.08919 5.33978 -76.2935 -4.76076 0.69693 -5.63636 6.04125 0.51155 -4.14175 2.61775 -4.58635 -6.76453 -4.50165 3.01312 -9.02963 -4.92669 6.84614 6.08756 7.40386
-0.004 0.95513 0.00034 183.63813 0 -4.26592 6.00558 4.42535 -1.81092 -10.95408 1.85097 -0.63433 4.5457 -11.48822 -18.70057 5.39483 78.87707 -1.72463 0.72994 5.32769 6.98532 37.29592 5.32047 -75.88669 -4.7957 0.61473 -5.64152 6.03924 0.49852 -4.13144 2.60877 -4.58144 -6.76567 -4.50713 3.01129 -9.0409 -4.90938 6.83679 6.04208 7.40678
-0.00397 0.95518 0.00037 183.64069 0 -4.26426 5.97556 4.42465 -1.7679 -10.9952 1.87936 -0.6216 4.32903 -11.45715 -19.05686 5.39389 78.65697 -1.76092 0.84356 5.01499 6.86757 38.44961 5.33167 -75.38713 -4.84303 0.5429 -5.64726 6.03616 0.50301 -4.11685 2.59343 -4.57465 -6.77272 -4.51927 3.0075 -9.05954 -4.882 6.81608 6.02292 7.43389
